grf
version=1
nRows=15
nColumns=37
inDegrees=no
endheader
time	ground_force_1_vx	ground_force_1_vy	ground_force_1_vz	ground_force_1_px	ground_force_1_py	ground_force_1_pz	ground_moment_1_mx	ground_moment_1_my	ground_moment_1_mz	ground_force_2_vx	ground_force_2_vy	ground_force_2_vz	ground_force_2_px	ground_force_2_py	ground_force_2_pz	ground_moment_2_mx	ground_moment_2_my	ground_moment_2_mz	ground_force_3_vx	ground_force_3_vy	ground_force_3_vz	ground_force_3_px	ground_force_3_py	ground_force_3_pz	ground_moment_3_mx	ground_moment_3_my	ground_moment_3_mz	ground_force_4_vx	ground_force_4_vy	ground_force_4_vz	ground_force_4_px	ground_force_4_py	ground_force_4_pz	ground_moment_4_mx	ground_moment_4_my	ground_moment_4_mz
      0.00000000	      0.00000000	     -0.00000000	      0.00000000	      0.00000000	      0.00000000	      0.00000000	      0.00000000	      0.00000000	      0.00000000	     -2.70209503	     49.55650330	   -335.52093506	   -289.48738507	  -1157.26200767	      0.00000000	     -0.00000000	      0.00000000	   1033.40174918	      0.88254548	    -42.09470753	   -311.44323730	   -308.31384887	   -702.08107223	      0.00000000	      0.00000000	     -0.00000000	  -2461.48306278	      0.00000000	     -0.00000000	      0.00000000	      0.00000000	      0.00000000	      0.00000000	      0.00000000	      0.00000000	      0.00000000
      0.01000000	      0.00000000	     -0.00000000	      0.00000000	      0.00000000	      0.00000000	      0.00000000	      0.00000000	      0.00000000	      0.00000000	     -2.85473633	     49.17213821	   -333.97573853	   -289.35443817	  -1156.62918431	      0.00000000	      0.00000000	      0.00000000	   1106.11993587	      0.64874303	    -42.45777514	   -311.21401978	   -308.41599947	   -703.05698874	      0.00000000	      0.00000000	     -0.00000000	  -2272.70914586	      0.00000000	     -0.00000000	      0.00000000	      0.00000000	      0.00000000	      0.00000000	      0.00000000	      0.00000000	      0.00000000
      0.02000000	      0.00000000	     -0.00000000	      0.00000000	      0.00000000	      0.00000000	      0.00000000	      0.00000000	      0.00000000	      0.00000000	     -3.12556791	     48.28110123	   -333.64575195	   -290.26281178	  -1156.20230965	      0.00000000	      0.00000000	      0.00000000	   1057.40576722	      0.36104439	    -42.60152437	   -312.12936401	   -308.32598200	   -701.92036104	      0.00000000	      0.00000000	     -0.00000000	  -2303.54800173	      0.00000000	     -0.00000000	      0.00000000	      0.00000000	      0.00000000	      0.00000000	      0.00000000	      0.00000000	      0.00000000
      0.03000000	      0.00000000	     -0.00000000	      0.00000000	      0.00000000	      0.00000000	      0.00000000	      0.00000000	      0.00000000	      0.00000000	     -3.62306070	     47.09177017	   -331.29714966	   -289.71386904	  -1155.31609630	      0.00000000	      0.00000000	      0.00000000	   1214.39616240	      0.73338140	    -42.07524494	   -312.93313599	   -307.86754386	   -702.50529344	      0.00000000	      0.00000000	     -0.00000000	  -2464.82065122	      0.00000000	     -0.00000000	      0.00000000	      0.00000000	      0.00000000	      0.00000000	      0.00000000	      0.00000000	      0.00000000
      0.04000000	      0.00000000	     -0.00000000	      0.00000000	      0.00000000	      0.00000000	      0.00000000	      0.00000000	      0.00000000	      0.00000000	     -3.10348654	     46.11555099	   -331.17581177	   -289.35628585	  -1155.67475644	      0.00000000	      0.00000000	      0.00000000	   1194.17555985	      0.53226289	    -41.65313342	   -312.41595459	   -307.85298400	   -702.50706025	      0.00000000	      0.00000000	     -0.00000000	  -2481.18060453	      0.00000000	     -0.00000000	      0.00000000	      0.00000000	      0.00000000	      0.00000000	      0.00000000	      0.00000000	      0.00000000
      0.05000000	      0.00000000	     -0.00000000	      0.00000000	      0.00000000	      0.00000000	      0.00000000	      0.00000000	      0.00000000	      0.00000000	     -3.42123461	     45.14017487	   -332.20086670	   -290.45159026	  -1155.91069580	      0.00000000	      0.00000000	     -0.00000000	   1132.21334935	      0.74071767	    -41.69220737	   -312.35128784	   -307.62318953	   -702.64075107	      0.00000000	      0.00000000	     -0.00000000	  -2590.04119357	      0.00000000	     -0.00000000	      0.00000000	      0.00000000	      0.00000000	      0.00000000	      0.00000000	      0.00000000	      0.00000000
      0.06000000	      0.00000000	     -0.00000000	      0.00000000	      0.00000000	      0.00000000	      0.00000000	      0.00000000	      0.00000000	      0.00000000	     -3.36843157	     45.03730011	   -329.66046143	   -289.37555490	  -1155.31799187	      0.00000000	     -0.00000000	      0.00000000	   1053.41739999	      0.70489117	    -41.74989703	   -312.63223267	   -308.49748960	   -702.71091639	      0.00000000	     -0.00000000	     -0.00000000	  -2649.15300902	      0.00000000	     -0.00000000	      0.00000000	      0.00000000	      0.00000000	      0.00000000	      0.00000000	      0.00000000	      0.00000000
      0.07000000	      0.00000000	     -0.00000000	      0.00000000	      0.00000000	      0.00000000	      0.00000000	      0.00000000	      0.00000000	      0.00000000	     -3.59460568	     45.00553131	   -328.45733643	   -289.61232680	  -1154.72896871	      0.00000000	      0.00000000	      0.00000000	   1088.57891664	      0.36527473	    -41.45404436	   -313.43548584	   -307.94603663	   -701.44433728	      0.00000000	      0.00000000	     -0.00000000	  -2506.24943061	      0.00000000	     -0.00000000	      0.00000000	      0.00000000	      0.00000000	      0.00000000	      0.00000000	      0.00000000	      0.00000000
      0.08000000	      0.00000000	     -0.00000000	      0.00000000	      0.00000000	      0.00000000	      0.00000000	      0.00000000	      0.00000000	      0.00000000	     -3.92526245	     45.20641708	   -328.45733643	   -289.14520022	  -1155.42752309	      0.00000000	      0.00000000	      0.00000000	   1116.79392183	      0.53226288	    -41.85321047	   -312.61453247	   -308.33177463	   -703.08014477	      0.00000000	      0.00000000	     -0.00000000	  -2432.35052166	      0.00000000	     -0.00000000	      0.00000000	      0.00000000	      0.00000000	      0.00000000	      0.00000000	      0.00000000	      0.00000000
      0.09000000	      0.00000000	     -0.00000000	      0.00000000	      0.00000000	      0.00000000	      0.00000000	      0.00000000	      0.00000000	      0.00000000	     -3.75923753	     45.99128723	   -327.14602661	   -288.87115008	  -1155.59009427	      0.00000000	      0.00000000	      0.00000000	    951.72654148	      0.34875871	    -41.99637605	   -312.31848145	   -307.68064270	   -702.07644563	      0.00000000	      0.00000000	     -0.00000000	  -2505.90685285	      0.00000000	     -0.00000000	      0.00000000	      0.00000000	      0.00000000	      0.00000000	      0.00000000	      0.00000000	      0.00000000
      0.10000000	      0.00000000	     -0.00000000	      0.00000000	      0.00000000	      0.00000000	      0.00000000	      0.00000000	      0.00000000	      0.00000000	     -3.27545309	     46.30930710	   -325.43130493	   -287.77313048	  -1154.63949472	      0.00000000	      0.00000000	      0.00000000	   1013.89718857	      0.32959362	    -42.50786592	   -313.66305542	   -307.34458705	   -701.35949560	      0.00000000	      0.00000000	     -0.00000000	  -2479.92640439	      0.00000000	     -0.00000000	      0.00000000	      0.00000000	      0.00000000	      0.00000000	      0.00000000	      0.00000000	      0.00000000
      0.11000000	      0.00000000	     -0.00000000	      0.00000000	      0.00000000	      0.00000000	      0.00000000	      0.00000000	      0.00000000	      0.00000000	     -2.96197033	     47.00377655	   -325.17953491	   -288.67779903	  -1154.68810912	      0.00000000	      0.00000000	      0.00000000	    859.85136764	      0.20929259	    -42.72284318	   -313.38552856	   -307.77211069	   -701.23024069	      0.00000000	      0.00000000	     -0.00000000	  -2488.50888455	      0.00000000	     -0.00000000	      0.00000000	      0.00000000	      0.00000000	      0.00000000	      0.00000000	      0.00000000	      0.00000000
      0.12000000	      0.00000000	     -0.00000000	      0.00000000	      0.00000000	      0.00000000	      0.00000000	      0.00000000	      0.00000000	      0.00000000	     -2.95142007	     46.63993073	   -326.50469971	   -288.42310644	  -1155.96247672	      0.00000000	      0.00000000	      0.00000000	    778.30720673	      0.05668846	    -43.30219269	   -313.70343018	   -306.21094826	   -700.83456669	      0.00000000	      0.00000000	     -0.00000000	  -2586.50621521	      0.00000000	     -0.00000000	      0.00000000	      0.00000000	      0.00000000	      0.00000000	      0.00000000	      0.00000000	      0.00000000
      0.13000000	      0.00000000	     -0.00000000	      0.00000000	      0.00000000	      0.00000000	      0.00000000	      0.00000000	      0.00000000	      0.00000000	     -2.35974121	     46.60653305	   -327.62283325	   -288.59926646	  -1156.11076280	      0.00000000	      0.00000000	      0.00000000	    931.90342945	     -0.11310083	    -43.79101562	   -313.69534302	   -306.81273604	   -701.74988182	      0.00000000	      0.00000000	     -0.00000000	  -2578.55198546	      0.00000000	     -0.00000000	      0.00000000	      0.00000000	      0.00000000	      0.00000000	      0.00000000	      0.00000000	      0.00000000
      0.14000000	      0.00000000	     -0.00000000	      0.00000000	      0.00000000	      0.00000000	      0.00000000	      0.00000000	      0.00000000	      0.00000000	     -1.71160376	     46.18543625	   -325.98510742	   -289.03774916	  -1153.79721248	      0.00000000	      0.00000000	      0.00000000	    999.18881842	      0.06458836	    -44.28131867	   -316.42633057	   -306.40299735	   -700.76818361	      0.00000000	     -0.00000000	     -0.00000000	  -2452.20960846	      0.00000000	     -0.00000000	      0.00000000	      0.00000000	      0.00000000	      0.00000000	      0.00000000	      0.00000000	      0.00000000
